<?xml version="1.0" encoding="UTF-8"?><svg id="Layer_1" xmlns="http://www.w3.org/2000/svg" viewBox="0 0 1724.66 586.61"><defs><style>.cls-1{fill:#fff;}</style></defs><g><path class="cls-1" d="M674.46,430.44c3.3,1.21,6.6,2.42,11.89,4.36-1-13.1-1.77-23.93-2.66-34.76-3.1-37.48-7.79-74.91-8.82-112.45-.69-25.07,3.53-50.31,6.08-75.41,.9-8.83,3.38-17.49,6.37-26.15-11.61,60.41-8.93,120.69,1.86,181.7,.99-2.17,2.68-4.29,2.86-6.52,1.01-12.27,1.41-24.6,2.53-36.86,.54-5.89-2.81-13.5,6.34-16.56,1.06-.36,.99-4.88,1.01-7.48,.09-14.97,.04-29.95,.04-45.58,4.65-1.23,9.04-2.38,15.35-4.05,0-9.87-.45-20.42,.25-30.88,.24-3.57,3.03-9.72,5.18-9.96,9.97-1.1,20.25-1.42,30.14-.04,2.99,.42,7.08,7.08,7.28,11.06,1.11,21.95,1.38,43.94,1.46,65.92,.02,6.26,1.38,10.3,9.43,10.79v-43.07h54.34c.78,15.96,1.64,31.11,2.23,46.28,.86,21.97,1.68,43.95,2.14,65.93,.11,5.53,1.12,8.42,9.9,5.36,0-21.23-.01-43.39,0-65.54,0-13.13-3.44-25.92,1.71-39.5,3.31-8.72,.62-19.72,.62-28.56,7.16-6.61,14.09-13.01,20.56-18.98,7.36,6.25,15.9,11.69,21.74,19.23,3.01,3.89,.91,11.55,1.7,17.42,.75,5.57,2.56,10.99,3.36,16.56,1.21,8.42,7.05,7.87,13.16,7.59,5.22-.24,10.45-.05,16.52-.05-.47,5.97-.87,11.11-1.34,17.07,7.43,0,9.64,3.88,8.85,10.62-.77,6.6-1.1,13.31-.95,19.95,.15,6.82-4.14,15.14,5.89,19.36,1.13,.48,.66,4.77,2.97,7.26v-73.55c4.28-.99,7.32-1.69,10.58-2.44-.4-4.32-.75-8.19-1.16-12.69h17.81c.35,3.36,.69,6.54,1.13,10.79,4.28,.54,8.73,1.11,14.07,1.79v72.53c.88,.17,1.76,.35,2.64,.52,.79-4.94,1.99-9.86,2.28-14.83,.73-12.78,5.04-17.08,17.78-17,2.67,.02,5.33,0,8,.04,10.85,.18,14.19,3.51,14.29,14.24,.03,3.32,0,6.65,0,11.07,4.85,1.37,9.72,3.39,14.75,4.01,6.06,.74,7.49,3.65,7.35,9.27-.34,13.32-.67,26.7,.1,39.98,.46,8.02,2.97,15.93,4.6,24.07,6.54-1.68,10.31-2.64,14.07-3.61-1.7-21.17-3.4-42.24-5.15-64.03h45.52c-1.1-8.78-2.15-17.19-3.3-26.35h45.33v24.64c.22,.17,.68,.77,1.24,.9q17.77,4.13,17.72,22.65c-.03,16.86,0,33.72,0,50.58l-3.1,.08v-66.24c-7.95-.78-14.37-1.41-21.31-2.09v-25.88h-34.08c.74,8.61,1.47,17.01,2.32,26.88-15.43-.78-29.94-1.51-46.3-2.34,.94,14.99,1.82,29.4,2.78,43.8,.2,2.99,.79,5.95,1.03,8.94,.81,10.45,11.1,20.59,21.51,21.41,12.47,.99,18.42,9.23,21.64,20.25,11.8-6.57,14.29-5.82,23.34,7.45,8.55-5.69,17.54-10.85,26.41-4.95,5.62-7.57,10.93-14.36,15.77-21.47,1.31-1.93,1.68-4.87,1.62-7.32-.38-15.32-1.03-30.63-1.54-45.94-.12-3.55-.02-7.11-.02-11.3,12.11,0,23.35-.04,34.6,.01,8.4,.04,15.56,1.53,12.96,13.65,8.77,.91,16.86,1.75,25.02,2.59v44.08c5.82,.83,11.85,1.69,17.99,2.57,3.61-5.57,6.87-12.24,11.62-17.58,10.56-11.86,21.83-13.7,34.47-4.33,7.75,5.74,11.45,3.91,16.84-2.46,9.96-11.77,23.07-15.47,37.83-11.07,4.59,1.37,8.54,4.88,12.4,8.66-24.87-10.36-43.11-2.99-56.67,19.77-10.86-7.15-20.96-22.07-34.53-11.54-9.42,7.32-14.35,20.42-21.05,30.58-12.34-13.51-20.22-12.63-32.81,10.12-23.36-23.7-25.88-24.04-45.36-6.99-4.46-2.35-8.56-4.52-12.67-6.69-2.33,5-5.24,9.82-6.79,15.05-1.05,3.54-.2,7.64-.2,14.73-14.99-17.16-27.24-11.93-38.06,.91-3.97-6.33-7.32-11.66-10.66-16.99-4.79,4.21-9.58,8.41-14.8,13-.11-.46-.51-1.47-.57-2.51-1.22-20.73-3.52-23.34-23.52-28.14-2.96-.71-6.03-2.46-8.25-4.57-8.67-8.28-13.17-7.75-18.85,2.65-1.4,2.56-2.97,5.02-3.73,6.31-4-8.17-6.45-18.26-12.71-24.62-7.36-7.48-14.32-4.64-24.05,5.91-15.93-12.02-30.35-5.61-37.64,18.8-.61,.09-1.46,.47-1.81,.2-11.84-9.15-13.42-8.58-17.26,6.38-1.19,4.63-2.29,9.29-3.41,13.83-4.16-8.92-6.71-18.36-12.33-25.33-6.26-7.78-12.83-6.13-23.98,2.74-13.18-7.06-17.3-5.02-20.38,10.19-1.04,5.1-1.92,10.24-2.9,15.49q-16.35-7.37-29.74,10.96c-.11-10.8,2.56-21.48-8.21-30.34-2.08,3.5-4.08,6.87-6.08,10.23l-3.07-1.31c0-3.72,.03-7.45,0-11.17-.13-14.92-4.22-17.48-16.8-10.51-11.15-12.33-12.24-12.32-24.45-.93-5.47-4.43-10.18-10.88-16.02-12.16-4.72-1.04-10.81,4.15-17.62,7.16-6.78-4.34-10.65-3.71-16.19,5.03-2.1,3.32-3.58,7.09-4.94,10.8-1.32,3.62-2.12,7.42-3.44,12.22-5.77-7.14-6.12-20.45-17.61-17.44-5.42,1.42-8.99,9.91-13.88,15.77-13.74-16.89-31.31-19.11-50.53-5.44-13.42-11.11-14.42-11.01-24.8,2.34-4.76-6.72-8.61-14.47-14.56-19.96-7.23-6.68-15.44-4.54-20.85,1.63-4.67-5.84-8.03-13.25-13.74-16.39-7.27-3.99-14.77,.19-19.74,6.88-15.44-6.83-18.72-5.51-25.88,10.61-21.04-10.96-23.68,6.97-29.54,20.28-13.41-27.74-23.54-24.4-36.51-12.5-1.1-6.86-1.54-13.77-3.39-20.28-3.58-12.62-9.86-14.35-19.91-6.19q-10.2-11.77-35.47,6.78c.28-4.2,1.03-7.7,.62-11.06-.85-6.97-2.88-13.18-12.19-11.65-.95,.16-2.49-.7-3.13-1.55-8.67-11.55-19.17-9.47-30.76-3.93-11.24-22.89-28.22-13.15-45.47-6.03,11.54-17.81,33.54-18.21,48.93-2.25,4.22-.76,8.44-1.52,14.61-2.62v-74.38h29.38c-.54-25.21-1.09-50.68-1.63-76.16-.13-6.3-.63-12.9,9.56-10.46v-15.11c17.66,6.15,37.34-.83,51.78,14.02,2.26,2.33,3.94,6.29,3.99,9.53,.34,22.94,.18,45.88,.18,69.11,6.48,1.17,10.94,1.98,15.9,2.87v56.64c4.47-16,14.73-6.6,20.1-8.86,3.21,3.34,5.6,5.82,8,8.31,1.28-3.34,3.76-6.72,3.63-10.01-.76-19.87-2.12-39.71-3.3-60-9.97-.51-18.92-1.67-27.74-1.01-2.8,.21-5.24,5.27-9.03,9.41,1.08-5.06,1.89-8.88,2.64-12.4h38.58c1.44,29.83,2.84,58.94,4.27,88.64h42.64c0-17.86,.12-35.4-.04-52.94-.1-10.5-8.95-16.85-22.18-16.32-10.12,.41-13.29,4.85-13.07,16.38,.32,17.15,.08,34.3-1.45,51.88-.49-2.82-1.29-5.63-1.41-8.47-.58-14.65-1.05-29.3-1.41-43.96-.43-17.38,14.67-26.75,30.35-18.3,5.21,2.8,8.58,9.28,13.87,11.58,6.19,2.68,13.56,2.63,21.86,4,0-14.58,0-27.43,0-40.28,0-4.21-1.16-8.63,5.73-9.4,1.52-.17,3.14-6.37,3.34-9.88,.34-6.17-.38-12.39-.69-19.51h35.78c-2.72-17.01-5.48-32.98-7.74-49.01-.98-6.97-3.81-10.61-11.28-11.07-4.1-.25-8.08-2.61-12.46-4.15,2.15-1.82,3.71-3.15,6.07-5.15-6.19-2.8-11.44-5.17-17.16-7.75,12.72-6.5,22.99-15.99,37.41-17.19,3.39-.28,9.6-1.06,8.32-8.52-.22-1.31,6.07-3.73,10.33-6.21v-14.68c3.26,7.56-1.38,19.37,13.58,18.94-.71,3.28-1.21,5.59-1.95,8.99-.91-1.44-1.36-2.01-1.67-2.66-2.66-5.59-12.65-8.39-14.92-3.58-5.62,11.89-16.69,11.65-26.71,14.25-2.18,.56-4.23,1.64-6.08,3.39,28.88,.06,57.66-2.25,85.37,10.31-3.35,.73-6.71,1.46-10.06,2.19-.1-.33-.2-.66-.31-.99,.98-.54,1.95-1.08,4.26-2.36-29.2-7.38-57.4-5.86-85.71-2.54,2.8,3.13,5.41,6.06,8.27,9.26,25.45-3.08,51.3-3.36,76.98,5.83-6.38,1.72-12.76,3.44-19.14,5.17-.23-.76-.46-1.52-.68-2.28,3.87-1.11,7.74-2.21,14.02-4.01-25.5-5.38-48.67-5.59-72.5-1.66,1.03,1.13,1.66,2.46,2.31,2.46,14.69,.14,17.1,10.77,18.68,21.9,5.01,35.24,10.75,70.5,6.31,106.23-4.71,37.91-10.16,75.73-15.18,113.6-.98,7.4-1.44,14.88-2.14,22.32,.84,.04,1.69,.09,2.53,.13,1.85-9.59,3.7-19.19,5.63-29.23h25.69c.83,8.1,1.6,15.59,2.35,23.06-1.94-6.72-3.86-13.42-5.73-19.95-21.92-.7-19.02-7.81-23.57,21.32,5.72,1.62,11.38,2.78,16.69,4.84,6.94,2.7,10.21-.58,12.45-6.42Zm-248.55-122.98c8.24-1.31,8.38,3.33,8.23,8.91-.3,10.96-.09,21.92-.09,33.1,3.91,1.06,7.36,1.99,11.07,3,.74,11.77,2.08,23.37,2,34.95-.06,8.05,1.99,13.98,10.06,17.59,9.3-6,15.88-.68,22.53,8.68-.96-19.72-1.84-37.67-2.72-55.7,7.67-.77,14.12-1.43,21.45-2.17v-53.59c-11.74-.7-22.83-1.37-34.89-2.09,1.15,33.36,2.28,65.79,3.4,98.22-.89,.04-1.79,.08-2.68,.12-1.43-33.4-2.87-66.79-4.34-101.12h23.52c-.57-7.07-1.3-13.31-1.54-19.58-.61-15.98-.38-32.03-1.86-47.92-.44-4.74-4.6-11.96-8.45-13.02-11.89-3.28-24.45-4.14-36.81-5.94v12.86c-3.09,.58-5.87,1.1-8.89,1.67v82.02Zm317.58,128.33c5.68-6.04,10.22-13.95,17.02-17.33,8.66-4.32,19.15-4.98,31.16-7.75,0-30.08,.13-60.27-.25-90.44-.03-2.36-3.09-5.4-5.51-6.88-11.87-7.26-23.95-14.18-36.04-21.06-6.1-3.47-12.38-6.62-17.99-9.6,0,42.96-.03,84.81,.02,126.66,.01,10.88-2.94,23.16,11.59,26.41Zm139.71-41.89c2.32-15.15-.84-28.64,2.8-43.36,5.27-21.35,2.34-44.94,1.49-67.53-.49-13.14-3.73-26.18-5.82-39.25-.14-.86-.79-1.78-1.45-2.4-5.72-5.37-11.49-10.68-16.63-15.44-5.78,5.33-15.33,9.95-16.91,16.49-3.21,13.24-1.68,27.45-3.11,41.37-3.07,29.95-.98,60.44-1,90.7,0,6.18,0,12.37,0,19.41h40.63Zm-12.61,58.97h17.81c.39-.82,1-1.65,1.21-2.58,4.52-19.55,6.08-20.83,25.45-20.91,.93,0,1.84-.56,2.79-.75,7.63-1.55,15.28-3.06,23.73-4.75v-63.83c-4.94-.25-9.18-.47-13.76-.7-.6-3.22-1.16-6.24-1.71-9.17h-22.61c-.64,3.19-1.2,5.98-1.68,8.36-5.07,1.29-9.43,2.4-12.92,3.28v75.45c-.69,.1-1.38,.2-2.08,.3-1.17-12.53-2.33-25.05-3.5-37.59h-63.29c-.77,9.39-1.75,17.29,7.35,21.53,1.43,.66,2.84,1.91,4.27,1.92,15.55,.14,15.55,.08,22.25,13.43,5.32,5.1,10.64,10.19,16.7,15.99Zm169.36-47.53c0-12.86-.34-28.14,.16-43.39,.22-6.61-1.83-10.05-8.43-10.34-11.19-.5-15.66-6.04-13.78-17.2,1.4-8.31-2.99-11.52-10.93-11-2.64,.17-5.32,.08-7.97-.1-8.52-.57-12.72,2.81-13.32,11.86-.58,8.76,.96,18.96-10.45,23.5-1.43,.57-1.63,5.3-1.68,8.11-.18,10.82-.07,21.64-.07,32.37-4.97,.46-9.1,.84-13.16,1.22v25.98c4.44,1.77,8.25,3.28,12.01,4.77,8.26-19.13,20.82-24.92,33.8-19.96,13.63-2.35,22.85-3.94,33.84-5.83Zm-510.94,17.58c4.81-.8,11.11,.05,13.46-2.6,7.32-8.23,15.14-11.31,25.7-7.96,1.46,.46,3.66-.89,5.36-1.73,12.04-6.01,21.85-4.05,30.1,6.02,1.12,1.37,2.95,3.67,3.9,3.42,11.01-2.82,19.78,1.52,27.69,9.37,2.9-17.85,5.58-34.4,8.5-52.4h-114.71v45.88Zm410.6-138.64v66.57c3.11,4.74,6.67,7.67,6.72,10.66,.27,18.96,.64,38.01-.9,56.87-.65,7.92-.33,13.93,5.83,19.25,13.51-12.07-.28-28.11,6.05-41.41,4-.38,8.14-.76,12.08-1.13,2.58-15.04,.62-29.41,3.24-44.14,3.94-22.19,1.03-45.6,1.03-68.61-5.44-.82-10.21-1.54-14.81-2.24-1.42-5.37,.68-13.67-8.83-9.33-.21,4.3-.4,8.17-.6,12.21-3.37,.45-5.94,.79-9.8,1.31Zm-317.97-44.17v28.95c-3.77,.82-6.56,1.43-9.08,1.98,0,12.57-.07,24.51,.08,36.46,.02,1.82,.9,5.12,1.67,5.21,8.3,.96,5.26,6.91,5.12,11.33-.13,4.23-.88,8.44-1.47,13.66h30.45c3.73-32.01,8.39-64.45,3.16-97.57h-29.94Zm154.79,18.28c-.68,12.75-1.63,25.28-1.79,37.82-.03,2.48,2.46,6.39,4.72,7.28,13.05,5.15,19.52,13.69,16.7,28.09-.14,.72,.73,1.65,1.3,2.82h20.93v39.26c2.96-.2,5.39-.36,7.72-.52-1.31-38.55-2.59-76.31-3.9-114.75h-45.68Zm-20.21,32.15c0-21.96,.01-42.21,0-62.46-.01-14.68-2.25-16.94-17.18-17.07-3.32-.03-6.65,.36-9.95,.77-5.44,.68-7.85,3.31-7.56,9.34,.54,11.21,.15,22.46,.15,33.37-6.2,1.41-10.68,2.43-15.56,3.54v50.8h20.76v-33.84c9.96,5.28,18.94,10.03,29.35,15.55Zm-329.95,115.39c6.25-3.19,11.5-5.86,16.72-8.52-.97-13.63-1.93-27.16-2.91-40.95-3.77-.62-6.89-1.13-10.9-1.79v-42.38c-10.7-.75-20.42-1.44-32.18-2.27,0,23.72-.13,45.98,.21,68.24,.03,2.07,2.82,4.39,4.76,6.1,8.05,7.11,22.52,6.63,24.3,21.57Zm56.16,23.17c13.13-7.75,23.16-2.82,31.69,6.71,8.59-6.46,10.42-14.79,9.89-24.67-.69-12.86-.17-25.79-.17-38.37,4.42-.98,7.19-1.6,10.12-2.26-.36-3.08-.66-5.62-1-8.45-4.55-.26-8.46-.48-12.71-.72-.51-2.91-.99-5.63-2.11-11.96-4.97,4.81-8,7.74-12.93,12.51h-22.8v67.21Zm245.62-1.14v-56.08h-41.08c1.51,20.81,2.97,40.88,4.32,59.47,8.87,3.74,16.08,6.79,22.21,9.38,5.27-4.62,10.3-9.03,14.55-12.76Zm489.56-46.84c.46-.83,.91-1.66,1.37-2.48-2.26-1.72-4.46-4.79-6.8-4.91-10.5-.54-21.05-.23-32.05-.23,0,18.24-.26,35.41,.2,52.55,.11,3.95,2.69,7.83,3.54,10.15,11.04-3.4,19.32-5.96,28.12-8.67-1.13-14.42-2.3-29.47-3.51-44.84,3.54-.6,6.34-1.08,9.14-1.56Zm-403.06,35.62v-78.58h-20.66c0,21.96,0,43.42,0,64.89,0,13.11,8.93,18.68,20.66,13.69Zm-87.37-103.81h-27.27c-1.47,18.39-2.86,35.9-4.29,53.81,10.39-.48,20.85-.97,31.56-1.47v-52.34Zm-124.57,28.46v29.12c14.11,1.35,27.46,2.63,41.63,3.99,1.25-10.36,2.54-21.05,4-33.1h-45.63Zm297.26,3.02c6.3,.31,13.75,.67,21.44,1.05v-41.22h-30.55v50.27c.68,.43,1.35,.86,2.03,1.3,2.19-3.52,4.38-7.05,7.08-11.39Zm313.36,42.05c.83,9.03,2.77,16.71,1.95,24.09-1.66,14.94,3.94,24.91,17.98,31.33,2.84-4.05,7.95-8.07,8.31-12.49,1.12-13.44,.41-27.04,.41-41.21-8.55-.51-17.68-1.06-28.65-1.72Zm-597.84-48.9c-.52-6.9-.98-12.99-1.46-19.28h-26.45v53.27c4.43-.27,7.21-.44,10.98-.68v-34.47c6.26,.42,11.47,.78,16.93,1.15Zm275.89-39.16h22.17v-12.41h-22.17v12.41Zm-72,94.52h18.26v-14.93c-6.72,.5-12.97,.96-19.54,1.45,.42,4.44,.82,8.71,1.28,13.48Z"/><path class="cls-1" d="M1036.41,313.48c8.31-8.3,17.07-9.33,25.98-8.57,13.77,1.17,26.3-.18,36.46-11.12,8.95-9.65,20.15-12.73,32.72-7.95,7.85,2.99,14.65,1.64,21.82-2.31,24.67-13.57,49.52-26.8,74.37-40.02,2.24-1.19,5.09-2.13,7.53-1.9,16.81,1.56,34.13,1.96,45.91,17.14,1.41,1.82,3.59,3.05,5,4.87,13.17,16.99,31.1,21.52,51.74,25.01,19.9,3.36,38.49,14.44,57.66,22.13-.46,1.28-.91,2.56-1.37,3.84-6.36-1.89-13.2-2.85-18.98-5.85-17.3-8.98-35.36-15.1-54.77-16.8-11.54-1.01-20.79-5.98-28.74-14.17-5.56-5.73-12-10.65-17.24-16.64-6.91-7.9-15.55-10.75-26.84-11.35,12.16,10.21-.34,17.98-.64,27.48,6.02,5,12.65,10.5,19.28,16-.77,.96-1.54,1.93-2.3,2.89-7.13-5.86-14.49-11.48-21.16-17.82-.99-.95,1.07-5.3,1.97-8,1.35-4.05,2.92-8.03,4.39-12.01-11.69-13.52-11.58-13.05-26.85-4.63-17.98,9.92-36.5,18.87-54.79,28.22-1.77,.9-4.02,1.22-5.38,2.51-10.69,10.16-22.26,11.43-35.71,5.45-8.68-3.86-17.09-.73-23.83,5.6-12.75,11.97-27.22,16.05-44.68,13.11-6.13-1.03-13.09,2.82-21.54,4.9Z"/><path class="cls-1" d="M560.01,295.59c-.63-6.14-1.03-12.31-1.93-18.41-1.25-8.56-2.32-17.2-4.5-25.54-1.65-6.3-11.27-8.15-17.81-4.14-2.98,1.82-5.93,3.69-9.45,5.88-2.34,7.92-4.91,16.61-7.31,24.71-4.68-8.87-4.3-10.03,.95-18.87,1.87-3.16,1.7-7.53,2.42-11.16,3.93-1.8,8.03-3.41,11.86-5.5,9.23-5.03,19.86-.56,25,8.42,8.24,14.41,2.66,29.42,4.74,44.01-1.33,.2-2.65,.4-3.98,.6Z"/><path class="cls-1" d="M669.76,353.61h-16.3c6.6-41.42,10.38-82.38,3.52-123.68,1.07-.02,2.14-.04,3.2-.05,3.17,40.94,6.34,81.89,9.58,123.73Zm-3.63-2.39c-.88-18.8-1.7-36.41-2.53-54.01-.23,.03-.45,.07-.68,.1-1.96,17.83-3.93,35.66-5.93,53.91h9.14Z"/><path class="cls-1" d="M649.71,392.57h20.85c-.65-8.68-1.31-17.59-2-26.82-5.15-.68-9.25-1.22-13.2-1.74-1.33,4.79-2.44,8.79-3.55,12.79v-14.53c5.44,0,9.82-.72,13.78,.27,2.38,.6,5.54,3.65,5.86,5.94,1.2,8.52,1.36,17.18,2.08,28.36-8.38-1.5-16.1-2.89-23.81-4.27Z"/></g><g><path class="cls-1" d="M558.53,515.06c5.33,1.96,10.67,3.91,19.22,7.05-1.62-21.19-2.86-38.7-4.3-56.2-5.01-60.61-12.59-121.14-14.27-181.84-1.12-40.54,5.7-81.35,9.83-121.95,1.45-14.27,5.46-28.28,10.31-42.29-18.77,97.69-14.44,195.16,3.01,293.83,1.6-3.51,4.33-6.93,4.63-10.55,1.64-19.85,2.28-39.78,4.09-59.6,.87-9.52-4.54-21.83,10.26-26.78,1.72-.58,1.6-7.9,1.63-12.09,.14-24.21,.07-48.43,.07-73.71,7.52-1.99,14.61-3.86,24.82-6.55,0-15.97-.72-33.01,.4-49.94,.38-5.78,4.9-15.72,8.37-16.1,16.12-1.78,32.74-2.29,48.74-.06,4.84,.67,11.45,11.45,11.77,17.88,1.79,35.49,2.23,71.06,2.36,106.6,.04,10.12,2.23,16.65,15.25,17.44v-69.65h87.87c1.26,25.81,2.65,50.31,3.6,74.83,1.38,35.53,2.72,71.06,3.46,106.61,.19,8.95,1.81,13.62,16.01,8.66,0-34.33-.02-70.16,0-105.99,.01-21.24-5.57-41.91,2.76-63.87,5.35-14.1,1-31.89,1-46.19,11.57-10.68,22.79-21.04,33.25-30.7,11.9,10.11,25.71,18.91,35.15,31.1,4.88,6.29,1.47,18.67,2.74,28.18,1.21,9,4.14,17.77,5.44,26.77,1.95,13.61,11.4,12.72,21.28,12.27,8.44-.39,16.9-.08,26.72-.08-.76,9.66-1.41,17.97-2.17,27.61,12.01-.01,15.59,6.28,14.32,17.17-1.25,10.68-1.78,21.52-1.53,32.26,.25,11.04-6.7,24.49,9.52,31.3,1.83,.77,1.07,7.72,4.8,11.75v-118.94c6.92-1.6,11.84-2.74,17.1-3.95-.64-6.99-1.21-13.24-1.88-20.53h28.8c.57,5.43,1.11,10.58,1.83,17.45,6.91,.88,14.12,1.79,22.74,2.89v117.28c1.42,.28,2.85,.57,4.27,.85,1.27-7.99,3.22-15.94,3.68-23.98,1.18-20.66,8.16-27.62,28.76-27.48,4.31,.03,8.63,0,12.94,.07,17.54,.3,22.95,5.68,23.11,23.02,.05,5.38,0,10.75,0,17.91,7.85,2.22,15.71,5.49,23.85,6.48,9.8,1.2,12.12,5.9,11.89,14.99-.55,21.55-1.08,43.17,.15,64.66,.75,12.97,4.81,25.76,7.44,38.93,10.57-2.71,16.68-4.28,22.76-5.84-2.75-34.24-5.49-68.31-8.32-103.55h73.61c-1.78-14.2-3.48-27.8-5.33-42.6h73.3v39.84c.36,.27,1.1,1.25,2.01,1.46q28.74,6.67,28.66,36.63c-.05,27.27,0,54.53,0,81.8l-5.01,.13v-107.12c-12.86-1.26-23.24-2.28-34.45-3.38v-41.86h-55.1c1.2,13.92,2.37,27.51,3.75,43.46-24.95-1.26-48.41-2.45-74.87-3.79,1.53,24.23,2.95,47.54,4.5,70.83,.32,4.83,1.29,9.62,1.66,14.45,1.31,16.9,17.94,33.29,34.78,34.63,20.16,1.6,29.79,14.93,34.99,32.74,19.08-10.62,23.1-9.4,37.75,12.05,13.83-9.2,28.36-17.55,42.71-8,9.08-12.23,17.68-23.22,25.5-34.73,2.12-3.13,2.72-7.87,2.62-11.84-.62-24.77-1.67-49.53-2.48-74.29-.19-5.74-.03-11.49-.03-18.27,19.58,0,37.77-.06,55.96,.02,13.58,.06,25.17,2.48,20.95,22.07,14.18,1.47,27.27,2.82,40.47,4.19v71.29c9.41,1.34,19.17,2.73,29.09,4.15,5.84-9,11.11-19.79,18.79-28.43,17.08-19.19,35.3-22.16,55.75-7.01,12.53,9.29,18.52,6.32,27.24-3.97,16.1-19.03,37.3-25.01,61.17-17.9,7.42,2.21,13.8,7.89,20.05,14.01-40.22-16.76-69.71-4.83-91.63,31.98-17.57-11.57-33.89-35.69-55.83-18.66-15.24,11.83-23.21,33.02-34.04,49.45-19.95-21.84-32.69-20.43-53.06,16.36-37.77-38.33-41.84-38.88-73.35-11.31-7.21-3.81-13.85-7.31-20.49-10.81-3.77,8.08-8.47,15.88-10.98,24.33-1.7,5.72-.32,12.35-.32,23.81-24.25-27.75-44.05-19.29-61.55,1.47-6.43-10.24-11.83-18.85-17.24-27.47-7.75,6.8-15.49,13.6-23.94,21.02-.18-.74-.82-2.38-.92-4.06-1.97-33.52-5.69-37.75-38.04-45.51-4.79-1.15-9.75-3.98-13.33-7.39-14.03-13.38-21.3-12.54-30.48,4.29-2.26,4.14-4.8,8.13-6.04,10.21-6.47-13.21-10.44-29.53-20.55-39.81-11.9-12.1-23.16-7.51-38.89,9.56-25.76-19.44-49.08-9.07-60.87,30.4-.99,.15-2.36,.76-2.92,.33-19.15-14.79-21.69-13.88-27.91,10.31-1.92,7.49-3.71,15.02-5.51,22.36-6.73-14.42-10.85-29.69-19.94-40.96-10.13-12.57-20.74-9.92-38.78,4.43-21.31-11.41-27.97-8.11-32.96,16.47-1.68,8.25-3.11,16.56-4.69,25.05q-26.43-11.92-48.09,17.73c-.18-17.47,4.14-34.74-13.28-49.06-3.37,5.67-6.6,11.11-9.84,16.55l-4.96-2.12c0-6.02,.04-12.04,0-18.06-.2-24.13-6.83-28.27-27.17-16.99-18.04-19.94-19.79-19.92-39.53-1.5-8.84-7.17-16.46-17.59-25.9-19.66-7.63-1.68-17.48,6.7-28.5,11.58-10.96-7.02-17.22-6-26.19,8.14-3.4,5.36-5.79,11.46-7.99,17.47-2.14,5.85-3.43,12.01-5.57,19.75-9.33-11.54-9.9-33.07-28.47-28.21-8.76,2.29-14.53,16.02-22.44,25.5-22.22-27.31-50.63-30.91-81.71-8.8-21.7-17.97-23.32-17.8-40.1,3.78-7.7-10.87-13.93-23.4-23.54-32.28-11.7-10.8-24.97-7.34-33.72,2.64-7.55-9.44-12.98-21.42-22.22-26.5-11.76-6.46-23.88,.3-31.92,11.13-24.97-11.05-30.26-8.92-41.85,17.16-34.02-17.72-38.3,11.27-47.76,32.8-21.69-44.85-38.07-39.46-59.04-20.22-1.77-11.09-2.48-22.26-5.47-32.79-5.8-20.41-15.95-23.21-32.2-10.01q-16.49-19.03-57.35,10.97c.45-6.79,1.67-12.46,1.01-17.89-1.37-11.26-4.65-21.31-19.72-18.83-1.54,.25-4.02-1.13-5.06-2.51-14.03-18.68-31-15.32-49.74-6.36-18.18-37.02-45.64-21.27-73.52-9.75,18.65-28.81,54.23-29.44,79.12-3.64,6.82-1.23,13.64-2.45,23.62-4.23v-120.28h47.52c-.87-40.76-1.76-81.95-2.64-123.15-.22-10.18-1.02-20.86,15.46-16.91v-24.44c28.56,9.95,60.39-1.34,83.73,22.67,3.66,3.76,6.38,10.18,6.45,15.41,.55,37.09,.29,74.19,.29,111.76,10.47,1.89,17.69,3.2,25.71,4.64v91.59c7.23-25.87,23.83-10.68,32.5-14.32,5.19,5.39,9.06,9.42,12.93,13.44,2.06-5.4,6.07-10.87,5.87-16.18-1.23-32.13-3.43-64.22-5.34-97.03-16.12-.83-30.6-2.7-44.86-1.64-4.53,.34-8.47,8.52-14.61,15.22,1.74-8.19,3.06-14.37,4.27-20.05h62.39c2.33,48.24,4.59,95.31,6.91,143.34h68.95c0-28.88,.19-57.25-.07-85.61-.16-16.98-14.47-27.25-35.87-26.39-16.36,.66-21.49,7.84-21.14,26.49,.52,27.73,.14,55.47-2.34,83.9-.79-4.56-2.09-9.11-2.27-13.69-.93-23.69-1.7-47.38-2.29-71.08-.7-28.11,23.73-43.25,49.07-29.6,8.42,4.54,13.87,15.01,22.43,18.73,10,4.34,21.92,4.25,35.35,6.47,0-23.57,0-44.35,0-65.14,0-6.81-1.87-13.95,9.27-15.21,2.46-.28,5.08-10.31,5.4-15.97,.56-9.97-.61-20.04-1.12-31.55h57.86c-4.4-27.51-8.87-53.32-12.51-79.25-1.58-11.27-6.16-17.16-18.25-17.9-6.64-.4-13.06-4.22-20.16-6.7,3.48-2.95,6-5.09,9.82-8.33-10.02-4.53-18.49-8.35-27.75-12.54,20.57-10.51,37.18-25.86,60.49-27.8,5.48-.46,15.52-1.72,13.45-13.78-.36-2.11,9.81-6.03,16.71-10.04V0c5.27,12.22-2.24,31.32,21.95,30.63-1.15,5.31-1.96,9.04-3.15,14.53-1.47-2.32-2.2-3.26-2.7-4.3-4.3-9.05-20.45-13.57-24.13-5.79-9.09,19.23-26.99,18.84-43.19,23.04-3.52,.91-6.83,2.65-9.84,5.49,46.71,.1,93.23-3.64,138.05,16.67-5.42,1.18-10.85,2.36-16.27,3.53-.16-.53-.33-1.06-.49-1.6,1.58-.88,3.16-1.75,6.9-3.82-47.22-11.94-92.82-9.47-138.6-4.11,4.53,5.07,8.76,9.81,13.37,14.97,41.15-4.98,82.95-5.44,124.49,9.43-10.32,2.78-20.64,5.57-30.95,8.35-.37-1.23-.74-2.45-1.1-3.68,6.26-1.79,12.51-3.58,22.67-6.48-41.24-8.7-78.71-9.05-117.24-2.69,1.66,1.83,2.69,3.97,3.74,3.98,23.75,.22,27.65,17.42,30.21,35.41,8.1,56.98,17.38,114,10.2,171.78-7.62,61.3-16.44,122.46-24.54,183.7-1.59,11.97-2.32,24.06-3.45,36.09,1.36,.07,2.73,.14,4.09,.21,2.99-15.51,5.98-31.02,9.1-47.27h41.54c1.34,13.1,2.58,25.21,3.8,37.3-3.13-10.87-6.24-21.71-9.27-32.26-35.44-1.12-30.75-12.63-38.11,34.47,9.24,2.62,18.4,4.5,26.98,7.83,11.23,4.36,16.51-.93,20.13-10.37ZM156.6,316.19c13.32-2.12,13.55,5.38,13.31,14.4-.48,17.72-.14,35.45-.14,53.52,6.32,1.71,11.9,3.22,17.9,4.84,1.2,19.03,3.37,37.78,3.23,56.52-.1,13.01,3.22,22.6,16.27,28.45,15.03-9.71,25.67-1.09,36.43,14.04-1.56-31.88-2.97-60.91-4.4-90.08,12.41-1.25,22.84-2.31,34.68-3.5v-86.65c-18.98-1.14-36.92-2.21-56.42-3.38,1.87,53.94,3.68,106.39,5.5,158.83-1.44,.07-2.89,.13-4.33,.2-2.32-54-4.64-108.01-7.02-163.51h38.03c-.92-11.43-2.1-21.53-2.48-31.65-.99-25.84-.62-51.79-3.01-77.5-.71-7.66-7.44-19.34-13.66-21.06-19.23-5.3-39.54-6.69-59.52-9.61v20.8c-5,.94-9.49,1.78-14.37,2.7v132.62Zm513.55,207.53c9.18-9.76,16.53-22.55,27.52-28.03,14.01-6.98,30.96-8.05,50.39-12.53,0-48.65,.2-97.45-.4-146.25-.05-3.81-5-8.73-8.91-11.12-19.19-11.74-38.72-22.92-58.28-34.06-9.86-5.61-20.02-10.71-29.09-15.53,0,69.47-.04,137.14,.03,204.81,.02,17.6-4.76,37.46,18.74,42.7Zm225.93-67.74c3.75-24.5-1.35-46.31,4.53-70.12,8.53-34.53,3.78-72.68,2.41-109.2-.8-21.25-6.04-42.33-9.4-63.47-.22-1.39-1.27-2.88-2.35-3.88-9.24-8.69-18.58-17.28-26.89-24.97-9.34,8.62-24.78,16.08-27.35,26.66-5.19,21.41-2.72,44.39-5.03,66.91-4.97,48.44-1.59,97.73-1.62,146.68,0,10,0,20,0,31.39h65.71Zm-20.39,95.36h28.79c.64-1.33,1.61-2.67,1.96-4.17,7.31-31.62,9.83-33.69,41.15-33.82,1.5,0,2.98-.9,4.51-1.21,12.35-2.5,24.7-4.96,38.37-7.69v-103.21c-7.98-.4-14.85-.75-22.26-1.13-.97-5.21-1.88-10.09-2.76-14.82h-36.57c-1.03,5.16-1.94,9.66-2.71,13.52-8.2,2.08-15.24,3.88-20.89,5.31v122.02c-1.12,.16-2.24,.32-3.36,.48-1.88-20.26-3.77-40.51-5.66-60.79h-102.35c-1.24,15.19-2.83,27.97,11.89,34.82,2.31,1.07,4.59,3.09,6.9,3.11,25.14,.22,25.15,.14,35.98,21.72,8.61,8.24,17.21,16.48,27.01,25.87Zm273.87-76.85c0-20.8-.55-45.5,.26-70.16,.35-10.69-2.96-16.25-13.63-16.73-18.09-.8-25.32-9.77-22.29-27.81,2.26-13.43-4.84-18.64-17.68-17.79-4.28,.28-8.61,.13-12.89-.16-13.77-.92-20.57,4.54-21.54,19.19-.94,14.17,1.55,30.66-16.9,38-2.32,.92-2.64,8.56-2.72,13.11-.3,17.49-.12,34.99-.12,52.35-8.03,.74-14.72,1.36-21.28,1.97v42.02c7.19,2.86,13.34,5.3,19.41,7.72,13.35-30.94,33.67-40.3,54.66-32.27,22.03-3.8,36.95-6.37,54.72-9.44Zm-826.23,28.42c7.78-1.3,17.96,.08,21.77-4.2,11.84-13.3,24.49-18.28,41.56-12.88,2.37,.75,5.92-1.44,8.66-2.8,19.48-9.72,35.34-6.55,48.67,9.74,1.81,2.21,4.76,5.93,6.31,5.53,17.81-4.56,31.99,2.46,44.78,15.15,4.68-28.86,9.03-55.63,13.75-84.73h-185.5v74.2Zm663.97-224.18v107.64c5.02,7.66,10.79,12.41,10.86,17.24,.44,30.66,1.04,61.46-1.46,91.96-1.05,12.8-.54,22.53,9.43,31.12,21.84-19.52-.45-45.46,9.78-66.97,6.47-.61,13.16-1.24,19.53-1.83,4.17-24.32,1.01-47.56,5.24-71.38,6.38-35.88,1.66-73.73,1.66-110.94-8.79-1.33-16.52-2.5-23.96-3.62-2.3-8.68,1.09-22.11-14.27-15.08-.34,6.95-.65,13.21-.97,19.74-5.45,.73-9.61,1.28-15.84,2.12ZM473.12,207.29v46.81c-6.1,1.33-10.6,2.31-14.68,3.2,0,20.32-.12,39.64,.12,58.96,.04,2.94,1.45,8.27,2.7,8.42,13.42,1.56,8.5,11.18,8.28,18.32-.21,6.84-1.42,13.65-2.37,22.08h49.25c6.04-51.76,13.56-104.21,5.1-157.78h-48.41Zm250.31,29.57c-1.1,20.61-2.64,40.88-2.89,61.16-.05,4.02,3.98,10.33,7.63,11.78,21.1,8.33,31.56,22.15,27.01,45.42-.23,1.17,1.18,2.66,2.1,4.56h33.85v63.48c4.78-.32,8.72-.58,12.48-.84-2.12-62.33-4.19-123.4-6.3-185.57h-73.88Zm-32.67,51.99c0-35.51,.02-68.26,0-101.01-.02-23.75-3.63-27.4-27.79-27.6-5.36-.04-10.76,.58-16.1,1.24-8.79,1.1-12.7,5.36-12.23,15.1,.87,18.12,.25,36.31,.25,53.97-10.03,2.28-17.27,3.93-25.17,5.73v82.15h33.58v-54.72c16.11,8.53,30.63,16.22,47.47,25.14ZM157.19,475.44c10.11-5.15,18.6-9.48,27.03-13.78-1.57-22.04-3.13-43.92-4.71-66.22-6.1-1-11.15-1.83-17.62-2.89v-68.53c-17.3-1.22-33.02-2.33-52.04-3.67,0,38.35-.21,74.36,.35,110.35,.05,3.35,4.57,7.09,7.7,9.87,13.02,11.49,36.42,10.72,39.3,34.88Zm90.81,37.47c21.23-12.53,37.45-4.56,51.25,10.85,13.89-10.45,16.86-23.92,16-39.89-1.12-20.8-.27-41.71-.27-62.05,7.15-1.59,11.63-2.59,16.37-3.65-.59-4.98-1.07-9.09-1.61-13.66-7.35-.42-13.68-.78-20.55-1.17-.83-4.71-1.61-9.1-3.42-19.35-8.04,7.78-12.94,12.52-20.91,20.23h-36.86v108.68Zm397.19-1.85v-90.69h-66.44c2.45,33.65,4.8,66.11,6.99,96.16,14.34,6.05,26,10.97,35.92,15.16,8.53-7.47,16.65-14.6,23.53-20.63Zm791.65-75.74c.74-1.34,1.47-2.68,2.21-4.02-3.66-2.78-7.21-7.75-11-7.95-16.98-.87-34.03-.38-51.83-.38,0,29.5-.42,57.26,.32,84.98,.17,6.39,4.34,12.67,5.72,16.42,17.85-5.5,31.24-9.63,45.47-14.02-1.82-23.32-3.73-47.66-5.67-72.51,5.72-.97,10.25-1.74,14.78-2.52Zm-651.78,57.6v-127.07h-33.41c0,35.51,0,70.22,0,104.93,0,21.21,14.44,30.21,33.41,22.14Zm-141.28-167.87h-44.09c-2.37,29.74-4.63,58.05-6.93,87.02,16.8-.78,33.72-1.57,51.03-2.38v-84.64Zm-201.44,46.01v47.08c22.82,2.19,44.4,4.25,67.32,6.45,2.02-16.75,4.11-34.04,6.47-53.53h-73.79Zm480.69,4.88c10.19,.5,22.24,1.09,34.67,1.7v-66.65h-49.4v81.28c1.09,.7,2.19,1.4,3.28,2.09,3.54-5.7,7.08-11.4,11.45-18.42Zm506.73,67.99c1.34,14.6,4.48,27.03,3.15,38.96-2.69,24.16,6.37,40.28,29.08,50.66,4.59-6.55,12.85-13.06,13.44-20.2,1.81-21.74,.66-43.72,.66-66.64-13.83-.83-28.59-1.71-46.33-2.78Zm-966.75-79.07c-.85-11.16-1.59-21.01-2.36-31.18h-42.77v86.15c7.16-.44,11.65-.72,17.76-1.09v-55.74c10.13,.69,18.54,1.26,27.37,1.86Zm446.14-63.32h35.84v-20.07h-35.84v20.07Zm-116.43,152.85h29.53v-24.15c-10.86,.81-20.97,1.56-31.59,2.34,.68,7.18,1.33,14.09,2.06,21.8Z"/><path class="cls-1" d="M1143.83,325.93c13.43-13.43,27.6-15.09,42.01-13.86,22.26,1.89,42.52-.29,58.95-17.99,14.48-15.6,32.59-20.58,52.91-12.85,12.69,4.83,23.69,2.64,35.28-3.73,39.89-21.94,80.07-43.34,120.27-64.71,3.62-1.93,8.23-3.44,12.18-3.08,27.18,2.52,55.19,3.16,74.24,27.72,2.28,2.94,5.8,4.93,8.08,7.88,21.29,27.47,50.28,34.8,83.67,40.44,32.18,5.43,62.25,23.36,93.24,35.79-.74,2.07-1.48,4.14-2.22,6.21-10.28-3.06-21.35-4.6-30.7-9.45-27.97-14.52-57.18-24.42-88.56-27.17-18.66-1.63-33.62-9.67-46.47-22.91-8.99-9.26-19.4-17.23-27.87-26.91-11.17-12.77-25.14-17.38-43.4-18.35,19.67,16.52-.55,29.08-1.03,44.43,9.74,8.08,20.46,16.97,31.18,25.87-1.24,1.56-2.48,3.12-3.73,4.68-11.54-9.47-23.43-18.56-34.22-28.81-1.61-1.53,1.73-8.58,3.18-12.94,2.18-6.55,4.72-12.98,7.09-19.42-18.9-21.86-18.73-21.1-43.42-7.48-29.08,16.04-59.02,30.52-88.61,45.63-2.86,1.46-6.5,1.97-8.7,4.05-17.29,16.44-36,18.49-57.74,8.81-14.03-6.25-27.63-1.18-38.54,9.05-20.62,19.35-44.02,25.96-72.25,21.19-9.92-1.67-21.17,4.56-34.83,7.92Z"/><path class="cls-1" d="M373.46,296.99c-1.01-9.93-1.67-19.9-3.12-29.76-2.02-13.83-3.74-27.81-7.27-41.29-2.67-10.19-18.22-13.17-28.79-6.7-4.81,2.95-9.59,5.96-15.28,9.5-3.79,12.8-7.94,26.85-11.82,39.96-7.57-14.35-6.95-16.21,1.53-30.52,3.03-5.1,2.75-12.17,3.92-18.05,6.36-2.92,12.98-5.51,19.18-8.89,14.93-8.14,32.12-.9,40.43,13.62,13.33,23.3,4.31,47.57,7.66,71.16-2.14,.32-4.29,.64-6.43,.97Z"/><path class="cls-1" d="M550.93,390.81h-26.36c10.67-66.98,16.78-133.21,5.69-200,1.73-.03,3.45-.06,5.18-.09,5.13,66.21,10.25,132.42,15.49,200.09Zm-5.88-3.86c-1.42-30.4-2.75-58.87-4.09-87.34-.36,.06-.73,.11-1.09,.17-3.17,28.83-6.35,57.67-9.6,87.18h14.78Z"/><path class="cls-1" d="M518.5,453.83h33.71c-1.05-14.04-2.12-28.44-3.23-43.36-8.33-1.1-14.95-1.97-21.34-2.81-2.15,7.75-3.95,14.21-5.75,20.67v-23.5c8.79,0,15.88-1.16,22.28,.44,3.85,.96,8.95,5.9,9.48,9.61,1.94,13.78,2.2,27.79,3.36,45.85-13.55-2.43-26.03-4.67-38.5-6.9Z"/></g></svg>