<?xml version="1.0" standalone="no"?>
<!DOCTYPE svg PUBLIC "-//W3C//DTD SVG 20010904//EN"
 "http://www.w3.org/TR/2001/REC-SVG-20010904/DTD/svg10.dtd">
<svg version="1.0" xmlns="http://www.w3.org/2000/svg"
 width="70.000000pt" height="70.000000pt" viewBox="0 0 70.000000 70.000000"
 preserveAspectRatio="xMidYMid meet">
<metadata>
Created by potrace 1.14, written by Peter Selinger 2001-2017
</metadata>
<g transform="translate(0.000000,70.000000) scale(0.100000,-0.100000)"
fill="#000000" stroke="none">
<path d="M328 674 c-2 -2 -21 -6 -42 -9 -21 -2 -50 -12 -63 -22 -14 -10 -41
-27 -60 -38 -68 -39 -105 -158 -70 -225 7 -14 12 -51 12 -82 -2 -69 8 -91 28
-64 12 17 14 17 20 2 4 -9 12 -16 20 -16 7 0 30 -20 50 -45 21 -25 44 -45 51
-45 8 0 19 -7 26 -15 7 -8 16 -12 22 -9 5 3 28 -9 51 -28 48 -38 84 -57 109
-56 10 1 37 20 60 42 46 43 49 60 20 104 -12 19 -13 30 -3 62 6 22 16 40 20
40 5 0 11 29 15 65 6 57 4 69 -17 102 -16 25 -22 45 -17 58 14 40 -34 135 -69
135 -6 0 -14 7 -19 16 -5 9 -11 15 -13 14 -2 -1 -15 1 -29 4 -45 9 -98 15
-102 10z"/>
</g>
</svg>
